# xmcd
#
# Track frame offsets: 
#        150
#        18138
#        36100
#        54778
#        77207
#        95491
#        110185
#        127742
#        143240
#        163285
#        181273
#        196894
#        217633
#
# Disc length: 3106 seconds
#
# Revision: 0
# Processed by: cddbd v1.5.1PL2 Copyright (c) Steve Scherf et al.
# Submitted via: ExactAudioCopy v0.95b4
#
DISCID=a40c200d
DTITLE=Latif - Love in the first
DYEAR=1900
DGENRE=R&B
TTITLE0=I don't want to hurt you
TTITLE1=Who's loving her now
TTITLE2=It's alright
TTITLE3=Without you
TTITLE4=Can't let love
TTITLE5=Girl
TTITLE6=Put me on
TTITLE7=My man's girl
TTITLE8=Love in the first
TTITLE9=My sisters girlfriend
TTITLE10=Rain will go away
TTITLE11=Heavenly
TTITLE12=I don't blame you
EXTD=
EXTT0=
EXTT1=
EXTT2=
EXTT3=
EXTT4=
EXTT5=
EXTT6=
EXTT7=
EXTT8=
EXTT9=
EXTT10=
EXTT11=
EXTT12=
PLAYORDER=
